<?xml version="1.0" encoding="UTF-8" standalone="no"?>
<!-- Created with Inkscape (http://www.inkscape.org/) -->

<svg
   xmlns:dc="http://purl.org/dc/elements/1.1/"
   xmlns:cc="http://creativecommons.org/ns#"
   xmlns:rdf="http://www.w3.org/1999/02/22-rdf-syntax-ns#"
   xmlns:svg="http://www.w3.org/2000/svg"
   xmlns="http://www.w3.org/2000/svg"
   xmlns:sodipodi="http://sodipodi.sourceforge.net/DTD/sodipodi-0.dtd"
   xmlns:inkscape="http://www.inkscape.org/namespaces/inkscape"
   width="195mm"
   height="235mm"
   viewBox="0 0 690.94484 832.67712"
   id="svg4341"
   version="1.1"
   inkscape:version="0.91 r13725"
   sodipodi:docname="logo_1.svg">
  <defs
     id="defs4343">
    <clipPath
       clipPathUnits="userSpaceOnUse"
       id="clipPath144">
      <path
         d="m 0,1024 1280,0 L 1280,0 0,0 0,1024 Z"
         id="path146"
         inkscape:connector-curvature="0" />
    </clipPath>
  </defs>
  <sodipodi:namedview
     id="base"
     pagecolor="#ffffff"
     bordercolor="#666666"
     borderopacity="1.0"
     inkscape:pageopacity="0.0"
     inkscape:pageshadow="2"
     inkscape:zoom="1.2796875"
     inkscape:cx="73.754579"
     inkscape:cy="988.86447"
     inkscape:document-units="px"
     inkscape:current-layer="g140"
     showgrid="false"
     inkscape:window-width="1855"
     inkscape:window-height="1056"
     inkscape:window-x="65"
     inkscape:window-y="24"
     inkscape:window-maximized="1" />
  <metadata
     id="metadata4346">
    <rdf:RDF>
      <cc:Work
         rdf:about="">
        <dc:format>image/svg+xml</dc:format>
        <dc:type
           rdf:resource="http://purl.org/dc/dcmitype/StillImage" />
        <dc:title></dc:title>
      </cc:Work>
    </rdf:RDF>
  </metadata>
  <g
     inkscape:label="Layer 1"
     inkscape:groupmode="layer"
     id="layer1"
     transform="translate(0,-219.68514)">
    <g
       transform="matrix(5.797035,0,0,-4.9916635,-1123.4763,4327.7189)"
       id="g140">
      <g
         id="g142"
         clip-path="url(#clipPath144)"
         transform="translate(-1.4828004,-1.7220407)">
        <g
           id="g148"
           transform="translate(232.6177,744.8198)">
          <path
             d="m 0,0 13.757,0 7.864,0 c 11.048,-0.353 21.26,-7.501 25.128,-18.747 0.961,-2.796 1.461,-5.643 1.54,-8.454 l 0.022,-8.678 -0.032,-41.649"
             style="fill:none;stroke:#824c34;stroke-width:14;stroke-linecap:round;stroke-linejoin:miter;stroke-miterlimit:10;stroke-dasharray:none;stroke-opacity:1"
             id="path150"
             inkscape:connector-curvature="0" />
        </g>
        <g
           id="g152"
           transform="translate(248.8208,744.8198)">
          <path
             d="m 0,0 6.924,0 6.588,0 c 9.254,0.263 17.807,5.582 21.047,13.95 0.806,2.081 1.225,4.199 1.291,6.291 l 0.017,4.851 c -0.29,8.361 -6.178,16.088 -15.441,19.015 -2.303,0.727 -4.648,1.106 -6.963,1.165 l -58.577,0.017"
             style="fill:none;stroke:#b05729;stroke-width:14;stroke-linecap:round;stroke-linejoin:miter;stroke-miterlimit:10;stroke-dasharray:none;stroke-opacity:1"
             id="path154"
             inkscape:connector-curvature="0" />
        </g>
        <g
           id="g156"
           transform="translate(227.5854,688.6768)">
          <path
             d="m 0,0 0.141,83.731 -0.077,8.142 0.022,11.984 c 0.08,2.499 0.583,5.03 1.553,7.516 3.899,9.998 14.193,16.353 25.33,16.666 l 6.99,0 44.751,0"
             style="fill:none;stroke:#cc5b17;stroke-width:14;stroke-linecap:round;stroke-linejoin:miter;stroke-miterlimit:10;stroke-dasharray:none;stroke-opacity:1"
             id="path158"
             inkscape:connector-curvature="0" />
        </g>
      </g>
    </g>
  </g>
</svg>
